<svg xmlns="http://www.w3.org/2000/svg" xmlns:xlink="http://www.w3.org/1999/xlink" width="4000" zoomAndPan="magnify" viewBox="0 0 3000 1124.99995" height="1500" preserveAspectRatio="xMidYMid meet" version="1.0"><defs><g/><clipPath id="f3412a26ba"><path d="M 42.277344 156.292969 L 802.777344 156.292969 L 802.777344 910 L 42.277344 910 Z M 42.277344 156.292969 " clip-rule="nonzero"/></clipPath><clipPath id="1411ba1c7c"><rect x="0" width="2123" y="0" height="728"/></clipPath></defs><g clip-path="url(#f3412a26ba)"><path fill="#69e281" d="M 803.128906 761.699219 C 803.128906 761.699219 671.378906 687.234375 529.300781 722.972656 C 528.59375 723.167969 527.9375 723.34375 527.234375 723.535156 C 535.332031 720.097656 543.773438 716.511719 552.792969 712.6875 C 722.394531 637.074219 791.566406 460.832031 791.566406 460.832031 C 791.566406 460.832031 615.792969 487.917969 503.417969 619.074219 C 551.929688 375.050781 422.703125 156.644531 422.703125 156.644531 C 422.703125 156.644531 293.476562 375.050781 341.992188 619.074219 C 229.617188 487.917969 53.84375 460.832031 53.84375 460.832031 C 53.84375 460.832031 123.011719 637.074219 292.613281 712.6875 C 301.632812 716.511719 310.074219 720.097656 318.175781 723.535156 C 317.46875 723.34375 316.816406 723.167969 316.105469 722.972656 C 174.03125 687.234375 42.277344 761.699219 42.277344 761.699219 C 42.277344 761.699219 174.03125 836.148438 316.105469 800.410156 C 318.355469 799.804688 320.46875 799.226562 322.648438 798.640625 C 270.179688 843.101562 248.992188 901.515625 248.992188 901.515625 C 248.992188 901.515625 339.578125 886.753906 396.777344 818.464844 C 422.699219 909.863281 422.703125 909.890625 422.703125 909.890625 C 422.703125 909.890625 422.710938 909.863281 448.628906 818.464844 C 505.828125 886.753906 596.414062 901.515625 596.414062 901.515625 C 596.414062 901.515625 575.230469 843.101562 522.757812 798.640625 C 524.941406 799.226562 527.054688 799.804688 529.300781 800.410156 C 671.378906 836.148438 803.128906 761.699219 803.128906 761.699219 " fill-opacity="1" fill-rule="nonzero"/></g><g transform="matrix(1, 0, 0, 1, 804, 288)"><g clip-path="url(#1411ba1c7c)"><g fill="#ffffff" fill-opacity="1"><g transform="translate(0.679711, 544.883148)"><g><path d="M 389.28125 -399.46875 C 379.582031 -404.8125 367.820312 -409.90625 354 -414.75 C 340.175781 -419.601562 321.863281 -422.03125 299.0625 -422.03125 C 269.46875 -422.03125 244.238281 -416.328125 223.375 -404.921875 C 202.519531 -393.523438 185.785156 -378.367188 173.171875 -359.453125 C 160.566406 -340.535156 152.078125 -319.796875 147.703125 -297.234375 C 143.335938 -274.679688 143.335938 -252.125 147.703125 -229.5625 C 152.078125 -207.007812 160.566406 -186.273438 173.171875 -167.359375 C 185.785156 -148.441406 202.519531 -133.28125 223.375 -121.875 C 244.238281 -110.476562 269.46875 -104.78125 299.0625 -104.78125 C 321.863281 -104.78125 341.875 -107.445312 359.09375 -112.78125 C 376.3125 -118.113281 389.769531 -123.207031 399.46875 -128.0625 L 413.296875 -20.375 C 397.285156 -14.070312 378.847656 -8.859375 357.984375 -4.734375 C 337.128906 -0.609375 317.488281 1.453125 299.0625 1.453125 C 254.914062 1.453125 216.347656 -5.941406 183.359375 -20.734375 C 150.378906 -35.535156 122.851562 -55.546875 100.78125 -80.765625 C 78.707031 -105.992188 62.210938 -134.25 51.296875 -165.53125 C 40.378906 -196.820312 34.921875 -229.203125 34.921875 -262.671875 C 34.921875 -296.148438 40.378906 -328.53125 51.296875 -359.8125 C 62.210938 -391.101562 78.707031 -419.359375 100.78125 -444.578125 C 122.851562 -469.804688 150.378906 -489.816406 183.359375 -504.609375 C 216.347656 -519.410156 254.914062 -526.8125 299.0625 -526.8125 C 336.894531 -526.8125 371.09375 -520.019531 401.65625 -506.4375 Z M 389.28125 -399.46875 "/></g></g></g><g fill="#ffffff" fill-opacity="1"><g transform="translate(438.720791, 544.883148)"><g><path d="M 58.21875 -520.265625 L 162.265625 -520.265625 L 162.265625 -104.046875 L 327.4375 -104.046875 L 327.4375 0 L 58.21875 0 Z M 58.21875 -520.265625 "/></g></g></g><g fill="#ffffff" fill-opacity="1"><g transform="translate(797.448647, 544.883148)"><g><path d="M 431.484375 -181.1875 C 431.484375 -145.769531 424.691406 -115.445312 411.109375 -90.21875 C 397.535156 -65 379.585938 -44.867188 357.265625 -29.828125 C 334.953125 -14.796875 310.457031 -4.734375 283.78125 0.359375 C 257.101562 5.453125 230.300781 5.453125 203.375 0.359375 C 176.445312 -4.734375 151.828125 -14.796875 129.515625 -29.828125 C 107.203125 -44.867188 89.253906 -65 75.671875 -90.21875 C 62.085938 -115.445312 55.296875 -145.769531 55.296875 -181.1875 L 55.296875 -520.265625 L 159.359375 -520.265625 L 159.359375 -181.90625 C 159.359375 -160.082031 165.054688 -142.617188 176.453125 -129.515625 C 187.847656 -116.421875 201.914062 -107.691406 218.65625 -103.328125 C 235.394531 -98.960938 252.128906 -98.960938 268.859375 -103.328125 C 285.597656 -107.691406 299.664062 -116.421875 311.0625 -129.515625 C 322.46875 -142.617188 328.171875 -160.082031 328.171875 -181.90625 L 328.171875 -520.265625 L 431.484375 -520.265625 Z M 431.484375 -181.1875 "/></g></g></g><g fill="#ffffff" fill-opacity="1"><g transform="translate(1285.697038, 544.883148)"><g><path d="M 58.21875 0 L 58.21875 -520.984375 L 264.140625 -520.984375 C 295.179688 -520.984375 321.859375 -514.191406 344.171875 -500.609375 C 366.484375 -487.035156 383.582031 -468.363281 395.46875 -444.59375 C 407.351562 -420.820312 412.8125 -393.65625 411.84375 -363.09375 C 411.351562 -343.6875 407.347656 -324.523438 399.828125 -305.609375 C 392.316406 -286.691406 380.316406 -271.65625 363.828125 -260.5 C 380.796875 -248.851562 394.007812 -233.691406 403.46875 -215.015625 C 412.9375 -196.335938 417.671875 -176.8125 417.671875 -156.4375 C 417.671875 -127.332031 410.753906 -101.015625 396.921875 -77.484375 C 383.097656 -53.960938 364.546875 -35.164062 341.265625 -21.09375 C 317.984375 -7.03125 292.273438 0 264.140625 0 Z M 162.984375 -416.9375 L 162.984375 -312.15625 L 255.40625 -312.15625 C 270.4375 -312.15625 282.195312 -317.367188 290.6875 -327.796875 C 299.175781 -338.234375 303.421875 -350.484375 303.421875 -364.546875 C 303.421875 -379.097656 299.175781 -391.46875 290.6875 -401.65625 C 282.195312 -411.84375 270.4375 -416.9375 255.40625 -416.9375 Z M 162.984375 -208.109375 L 162.984375 -104.046875 L 255.40625 -104.046875 C 270.4375 -104.046875 282.925781 -109.140625 292.875 -119.328125 C 302.820312 -129.515625 307.796875 -141.882812 307.796875 -156.4375 C 307.796875 -170.988281 302.820312 -183.238281 292.875 -193.1875 C 282.925781 -203.132812 270.4375 -208.109375 255.40625 -208.109375 Z M 162.984375 -208.109375 "/></g></g></g><g fill="#ffffff" fill-opacity="1"><g transform="translate(1737.563167, 544.883148)"><g><path d="M 34.203125 -33.46875 L 47.296875 -142.625 C 67.179688 -128.550781 86.945312 -118.484375 106.59375 -112.421875 C 126.238281 -106.359375 144.066406 -102.84375 160.078125 -101.875 C 176.085938 -100.90625 187.972656 -100.660156 195.734375 -101.140625 C 211.253906 -102.109375 224.472656 -107.566406 235.390625 -117.515625 C 246.304688 -127.460938 251.035156 -139.46875 249.578125 -153.53125 C 248.609375 -168.570312 243.03125 -179.972656 232.84375 -187.734375 C 222.65625 -195.492188 210.285156 -201.800781 195.734375 -206.65625 C 168.566406 -216.84375 143.21875 -228.601562 119.6875 -241.9375 C 96.164062 -255.28125 77.25 -271.894531 62.9375 -291.78125 C 48.625 -311.664062 41.46875 -336.164062 41.46875 -365.28125 C 41.46875 -394.382812 47.648438 -420.695312 60.015625 -444.21875 C 72.390625 -467.75 89.734375 -486.546875 112.046875 -500.609375 C 134.367188 -514.679688 159.835938 -522.445312 188.453125 -523.90625 C 202.035156 -524.875 218.648438 -524.382812 238.296875 -522.4375 C 257.941406 -520.5 284.503906 -513.710938 317.984375 -502.078125 L 304.875 -401.65625 C 276.257812 -413.300781 253.460938 -419.972656 236.484375 -421.671875 C 219.503906 -423.367188 206.890625 -423.972656 198.640625 -423.484375 C 180.210938 -422.515625 166.753906 -416.207031 158.265625 -404.5625 C 149.773438 -392.925781 146.015625 -379.832031 146.984375 -365.28125 C 148.441406 -350.726562 154.75 -339.691406 165.90625 -332.171875 C 177.0625 -324.648438 190.15625 -318.222656 205.1875 -312.890625 C 232.351562 -303.179688 257.335938 -291.171875 280.140625 -276.859375 C 302.941406 -262.554688 321.253906 -245.335938 335.078125 -225.203125 C 348.898438 -205.066406 355.8125 -181.175781 355.8125 -153.53125 C 355.8125 -124.90625 349.503906 -98.953125 336.890625 -75.671875 C 324.285156 -52.390625 306.21875 -33.710938 282.6875 -19.640625 C 259.15625 -5.578125 231.140625 2.421875 198.640625 4.359375 C 188.941406 4.847656 175.722656 4.484375 158.984375 3.265625 C 142.253906 2.054688 123.21875 -1.332031 101.875 -6.90625 C 80.53125 -12.488281 57.972656 -21.34375 34.203125 -33.46875 Z M 34.203125 -33.46875 "/></g></g></g></g></g></svg>