<svg xmlns="http://www.w3.org/2000/svg" xmlns:xlink="http://www.w3.org/1999/xlink" width="4000" zoomAndPan="magnify" viewBox="0 0 3000 1124.99995" height="1500" preserveAspectRatio="xMidYMid meet" version="1.0"><defs><g/></defs><g fill="#ffffff" fill-opacity="1"><g transform="translate(868.257649, 859.407064)"><g><path d="M 204.1875 2.28125 C 175.675781 -4.5625 149.914062 -16.15625 126.90625 -32.5 C 103.90625 -48.851562 84.226562 -68.4375 67.875 -91.25 C 51.519531 -114.070312 38.96875 -138.695312 30.21875 -165.125 C 21.476562 -191.550781 17.109375 -218.453125 17.109375 -245.828125 C 17.109375 -282.335938 23.476562 -317.035156 36.21875 -349.921875 C 48.957031 -382.816406 67.019531 -411.90625 90.40625 -437.1875 C 113.789062 -462.476562 141.738281 -482.441406 174.25 -497.078125 C 206.757812 -511.722656 242.597656 -519.046875 281.765625 -519.046875 C 300.773438 -519.046875 316.457031 -518.285156 328.8125 -516.765625 C 341.175781 -515.242188 351.539062 -512.957031 359.90625 -509.90625 C 377.78125 -504.207031 397.742188 -501.359375 419.796875 -501.359375 C 427.398438 -501.359375 434.71875 -501.738281 441.75 -502.5 C 448.789062 -503.257812 455.539062 -504.398438 462 -505.921875 L 467.703125 -507.625 C 455.921875 -451.351562 447.9375 -391.085938 443.75 -326.828125 C 438.425781 -366.367188 429.773438 -398.5 417.796875 -423.21875 C 405.816406 -447.9375 391.9375 -466.09375 376.15625 -477.6875 C 360.375 -489.28125 343.738281 -495.078125 326.25 -495.078125 C 306.863281 -495.078125 287.566406 -488.613281 268.359375 -475.6875 C 249.160156 -462.757812 231.671875 -444.410156 215.890625 -420.640625 C 200.109375 -396.878906 187.460938 -368.742188 177.953125 -336.234375 C 168.453125 -303.722656 163.703125 -267.882812 163.703125 -228.71875 C 163.703125 -187.65625 167.125 -153.050781 173.96875 -124.90625 C 180.8125 -96.769531 190.222656 -74.144531 202.203125 -57.03125 C 214.179688 -39.925781 227.675781 -27.472656 242.6875 -19.671875 C 257.707031 -11.878906 273.394531 -7.984375 289.75 -7.984375 C 306.101562 -7.984375 322.546875 -11.210938 339.078125 -17.671875 C 355.617188 -24.140625 371.113281 -32.984375 385.5625 -44.203125 C 400.019531 -55.421875 412.757812 -68.347656 423.78125 -82.984375 C 434.8125 -97.628906 443.179688 -112.9375 448.890625 -128.90625 C 450.785156 -105.707031 453.253906 -84.03125 456.296875 -63.875 C 459.335938 -43.726562 463.140625 -22.4375 467.703125 0 L 462 -1.71875 C 444.125 -5.894531 426.253906 -7.984375 408.390625 -7.984375 C 402.304688 -7.984375 396.410156 -7.695312 390.703125 -7.125 C 385.003906 -6.5625 379.492188 -5.898438 374.171875 -5.140625 C 351.347656 -0.953125 332.425781 2.945312 317.40625 6.5625 C 302.394531 10.175781 286.710938 11.984375 270.359375 11.984375 C 261.234375 11.984375 251.347656 11.222656 240.703125 9.703125 C 230.054688 8.179688 217.882812 5.707031 204.1875 2.28125 Z M 204.1875 2.28125 "/></g></g></g><g fill="#ffffff" fill-opacity="1"><g transform="translate(1381.906212, 859.407064)"><g><path d="M 15.96875 0 C 22.8125 -27.757812 28.226562 -58.65625 32.21875 -92.6875 C 36.21875 -126.71875 38.878906 -162.078125 40.203125 -198.765625 C 41.535156 -235.460938 41.535156 -272.15625 40.203125 -308.84375 C 38.878906 -345.539062 36.21875 -380.90625 32.21875 -414.9375 C 28.226562 -448.976562 22.8125 -479.875 15.96875 -507.625 L 165.984375 -507.625 C 159.140625 -479.875 153.625 -448.976562 149.4375 -414.9375 C 145.25 -380.90625 142.488281 -345.539062 141.15625 -308.84375 C 139.832031 -272.15625 139.832031 -235.460938 141.15625 -198.765625 C 142.488281 -162.078125 145.25 -126.8125 149.4375 -92.96875 C 153.625 -59.125 159.140625 -28.132812 165.984375 0 Z M 15.96875 0 "/></g></g></g><g fill="#ffffff" fill-opacity="1"><g transform="translate(1600.667881, 859.407064)"><g><path d="M 33.078125 -37.078125 C 26.992188 -53.804688 24.519531 -70.722656 25.65625 -87.828125 C 26.800781 -104.941406 29.179688 -122.816406 32.796875 -141.453125 C 36.410156 -160.085938 39.070312 -180.144531 40.78125 -201.625 C 42.488281 -223.113281 40.867188 -246.40625 35.921875 -271.5 C 30.984375 -296.59375 20.53125 -324.160156 4.5625 -354.203125 L 154.578125 -354.203125 C 159.515625 -337.847656 161.316406 -319.6875 159.984375 -299.71875 C 158.660156 -279.757812 155.617188 -258.941406 150.859375 -237.265625 C 146.109375 -215.597656 141.164062 -194.113281 136.03125 -172.8125 C 130.894531 -151.519531 126.898438 -131.175781 124.046875 -111.78125 C 121.203125 -92.394531 120.921875 -75.097656 123.203125 -59.890625 C 125.097656 -47.722656 129.46875 -38.117188 136.3125 -31.078125 C 143.164062 -24.046875 151.15625 -20.53125 160.28125 -20.53125 C 171.300781 -20.53125 182.800781 -26.519531 194.78125 -38.5 C 206.757812 -50.476562 217.023438 -69.488281 225.578125 -95.53125 C 234.140625 -121.582031 239.179688 -155.898438 240.703125 -198.484375 C 242.222656 -241.078125 237.847656 -292.984375 227.578125 -354.203125 L 377.59375 -354.203125 C 369.226562 -319.222656 362.859375 -287.566406 358.484375 -259.234375 C 354.109375 -230.898438 351.921875 -203.519531 351.921875 -177.09375 C 351.921875 -150.664062 354.109375 -123.285156 358.484375 -94.953125 C 362.859375 -66.628906 369.226562 -34.976562 377.59375 0 L 227.578125 0 C 232.140625 -18.25 236.035156 -35.550781 239.265625 -51.90625 C 242.503906 -68.257812 245.265625 -84.039062 247.546875 -99.25 C 241.460938 -75.289062 233 -55.988281 222.15625 -41.34375 C 211.320312 -26.707031 199.34375 -15.585938 186.21875 -7.984375 C 173.101562 -0.378906 159.507812 4.75 145.4375 7.40625 C 131.375 10.070312 118.066406 11.40625 105.515625 11.40625 C 89.546875 11.40625 74.8125 7.128906 61.3125 -1.421875 C 47.8125 -9.984375 38.398438 -21.867188 33.078125 -37.078125 Z M 33.078125 -37.078125 "/></g></g></g><g fill="#ffffff" fill-opacity="1"><g transform="translate(2031.040816, 859.407064)"><g><path d="M 164.84375 0 L 15.96875 0 C 22.8125 -27.757812 28.226562 -58.65625 32.21875 -92.6875 C 36.21875 -126.71875 38.878906 -162.078125 40.203125 -198.765625 C 41.535156 -235.460938 41.535156 -272.15625 40.203125 -308.84375 C 38.878906 -345.539062 36.21875 -380.90625 32.21875 -414.9375 C 28.226562 -448.976562 22.8125 -479.875 15.96875 -507.625 L 165.984375 -507.625 C 158.378906 -477.207031 152.484375 -443.082031 148.296875 -405.25 C 144.109375 -367.414062 141.539062 -328.25 140.59375 -287.75 C 139.644531 -247.257812 140.3125 -207.238281 142.59375 -167.6875 C 145.632812 -200.769531 152.191406 -229.664062 162.265625 -254.375 C 172.347656 -279.09375 184.519531 -299.722656 198.78125 -316.265625 C 213.039062 -332.804688 228.34375 -345.164062 244.6875 -353.34375 C 261.039062 -361.519531 276.820312 -365.609375 292.03125 -365.609375 C 303.0625 -365.609375 312.945312 -363.707031 321.6875 -359.90625 C 336.894531 -353.820312 349.726562 -343.175781 360.1875 -327.96875 C 370.644531 -312.757812 378.0625 -294.601562 382.4375 -273.5 C 386.8125 -252.394531 387.097656 -229.289062 383.296875 -204.1875 C 379.492188 -178.71875 371.316406 -153.910156 358.765625 -129.765625 C 346.210938 -105.617188 330.144531 -83.753906 310.5625 -64.171875 C 290.976562 -44.585938 268.828125 -28.992188 244.109375 -17.390625 C 219.398438 -5.796875 192.976562 0 164.84375 0 Z M 270.921875 -177.953125 C 278.910156 -227.765625 279.578125 -264.269531 272.921875 -287.46875 C 266.265625 -310.664062 256.285156 -322.265625 242.984375 -322.265625 C 232.335938 -322.265625 220.925781 -315.132812 208.75 -300.875 C 196.582031 -286.613281 185.742188 -265.984375 176.234375 -238.984375 C 166.734375 -211.984375 160.460938 -179.472656 157.421875 -141.453125 C 154.378906 -103.429688 156.28125 -60.65625 163.125 -13.125 C 175.289062 -12.738281 187.171875 -17.109375 198.765625 -26.234375 C 210.367188 -35.359375 221.019531 -47.90625 230.71875 -63.875 C 240.414062 -79.851562 248.6875 -97.726562 255.53125 -117.5 C 262.375 -137.269531 267.503906 -157.421875 270.921875 -177.953125 Z M 270.921875 -177.953125 "/></g></g></g><g fill="#ffffff" fill-opacity="1"><g transform="translate(2464.265574, 859.407064)"><g><path d="M 21.109375 -57.609375 C 13.117188 -72.054688 9.597656 -85.457031 10.546875 -97.8125 C 11.503906 -110.175781 16.164062 -120.160156 24.53125 -127.765625 C 32.894531 -135.367188 44.109375 -139.171875 58.171875 -139.171875 C 68.828125 -139.171875 80.617188 -136.601562 93.546875 -131.46875 C 106.472656 -126.332031 120.347656 -117.875 135.171875 -106.09375 C 124.523438 -98.488281 117.585938 -89.457031 114.359375 -79 C 111.128906 -68.539062 111.414062 -58.269531 115.21875 -48.1875 C 119.019531 -38.113281 125.671875 -29.085938 135.171875 -21.109375 C 146.960938 -11.597656 159.320312 -6.84375 172.25 -6.84375 C 184.039062 -6.84375 194.785156 -10.265625 204.484375 -17.109375 C 214.179688 -23.953125 221.117188 -32.882812 225.296875 -43.90625 C 229.484375 -54.9375 229.484375 -66.628906 225.296875 -78.984375 C 221.117188 -91.347656 211.234375 -102.851562 195.640625 -113.5 C 182.710938 -122.625 167.40625 -131.082031 149.71875 -138.875 C 132.039062 -146.675781 114.835938 -155.140625 98.109375 -164.265625 C 76.046875 -176.429688 59.21875 -191.070312 47.625 -208.1875 C 36.03125 -225.300781 30.039062 -242.882812 29.65625 -260.9375 C 29.28125 -279 35.175781 -295.921875 47.34375 -311.703125 C 59.507812 -327.484375 78.140625 -340.316406 103.234375 -350.203125 C 117.679688 -355.523438 132.984375 -359.613281 149.140625 -362.46875 C 165.304688 -365.320312 181.375 -366.75 197.34375 -366.75 C 217.5 -366.75 236.507812 -364.5625 254.375 -360.1875 C 272.25 -355.8125 286.984375 -349.441406 298.578125 -341.078125 C 310.179688 -332.710938 316.9375 -322.066406 318.84375 -309.140625 C 321.125 -294.691406 316.554688 -280.8125 305.140625 -267.5 C 293.734375 -254.195312 275.675781 -246.023438 250.96875 -242.984375 C 233.851562 -241.078125 219.972656 -243.546875 209.328125 -250.390625 C 198.679688 -257.234375 193.070312 -266.171875 192.5 -277.203125 C 191.925781 -288.234375 197.722656 -298.878906 209.890625 -309.140625 C 215.210938 -313.703125 217.96875 -319.023438 218.15625 -325.109375 C 218.351562 -331.191406 215.3125 -336.703125 209.03125 -341.640625 C 202.757812 -346.585938 192.59375 -349.0625 178.53125 -349.0625 C 173.582031 -349.0625 167.398438 -346.585938 159.984375 -341.640625 C 152.578125 -336.703125 145.734375 -330.238281 139.453125 -322.25 C 133.179688 -314.269531 128.90625 -305.71875 126.625 -296.59375 C 124.34375 -287.46875 125.578125 -278.53125 130.328125 -269.78125 C 135.078125 -261.039062 144.867188 -253.628906 159.703125 -247.546875 C 173.390625 -241.835938 188.125 -236.226562 203.90625 -230.71875 C 219.6875 -225.207031 235.367188 -219.125 250.953125 -212.46875 C 266.546875 -205.8125 280.710938 -197.726562 293.453125 -188.21875 C 306.191406 -178.71875 316.457031 -167.21875 324.25 -153.71875 C 332.050781 -140.21875 335.953125 -123.960938 335.953125 -104.953125 C 335.953125 -83.660156 329.769531 -64.644531 317.40625 -47.90625 C 305.050781 -31.175781 289.554688 -18.0625 270.921875 -8.5625 C 257.992188 -2.09375 243.351562 2.847656 227 6.265625 C 210.65625 9.691406 193.738281 11.40625 176.25 11.40625 C 155.332031 11.40625 134.703125 8.929688 114.359375 3.984375 C 94.015625 -0.949219 75.664062 -8.550781 59.3125 -18.8125 C 42.96875 -29.082031 30.234375 -42.015625 21.109375 -57.609375 Z M 21.109375 -57.609375 "/></g></g></g><path fill="#56fc81" d="M 461.191406 223.558594 C 450.695312 242.621094 438.148438 269.632812 429.09375 292.660156 C 427.628906 296.390625 426.238281 299.890625 426.007812 300.4375 C 423.023438 307.492188 413.410156 335.542969 409.328125 349.101562 C 405.160156 362.941406 404.671875 364.632812 402.761719 371.835938 C 401.953125 374.894531 401.136719 377.953125 400.316406 381.011719 C 399.273438 384.863281 395.808594 399.394531 394.753906 404.34375 C 393.179688 411.710938 390.242188 426.402344 389.808594 429.074219 C 389.59375 430.390625 388.960938 434.109375 388.398438 437.335938 C 381.953125 474.3125 378.972656 516.351562 380.117188 554.214844 C 380.921875 580.972656 383.070312 602.917969 387.25 627.113281 C 389.292969 638.921875 389.546875 640.5625 389.28125 640.277344 C 389.179688 640.167969 386.875 637.5625 384.164062 634.492188 C 373.984375 622.96875 358.1875 607.796875 344.75 596.636719 C 309.234375 567.140625 265.949219 541.917969 219.449219 523.632812 C 216.269531 522.382812 213.21875 521.171875 212.667969 520.945312 C 209.625 519.683594 193.589844 514.0625 187.9375 512.273438 C 184.320312 511.125 180.640625 509.9375 179.761719 509.625 C 170.566406 506.378906 130.554688 496.546875 128.960938 497.144531 C 128.175781 497.4375 138.160156 518.566406 145.03125 531.160156 C 148.652344 537.792969 154.847656 548.558594 157.484375 552.804688 C 158.917969 555.121094 160.351562 557.4375 161.78125 559.757812 C 167.128906 568.417969 176.019531 581.386719 183.902344 592.011719 C 209.0625 625.941406 238.578125 656.238281 270.304688 680.714844 C 294.5 699.378906 323.683594 716.507812 350.476562 727.773438 C 362.746094 732.929688 365.894531 734.308594 366.273438 734.6875 C 366.472656 734.890625 365.066406 734.660156 363.144531 734.175781 C 325.171875 724.628906 277.601562 723.558594 233.808594 731.265625 C 201.695312 736.917969 173.039062 745.375 143.066406 758.046875 C 132.585938 762.476562 118.535156 769.292969 118.535156 769.945312 C 118.535156 770.382812 128.308594 775.246094 136.882812 779.078125 C 149.605469 784.761719 159.394531 788.558594 173.777344 793.378906 C 239.726562 815.496094 307.0625 819.734375 364.242188 805.375 C 372.988281 803.175781 372.484375 803.046875 368.628906 806.515625 C 349.347656 823.871094 333.039062 844.191406 319.550781 867.660156 C 314.394531 876.632812 305.605469 894.742188 305.605469 896.394531 C 305.605469 896.621094 305.917969 896.714844 306.304688 896.605469 C 306.6875 896.5 307.628906 896.292969 308.398438 896.148438 C 319.558594 894.035156 339.269531 887.875 352.472656 882.375 C 354.667969 881.460938 357.539062 880.265625 358.855469 879.722656 C 363.117188 877.953125 376.261719 871.355469 381.789062 868.210938 C 402.320312 856.527344 419.875 842.757812 433.898438 827.332031 C 436.683594 824.269531 439.066406 821.761719 439.199219 821.761719 C 439.328125 821.761719 439.824219 823.152344 440.300781 824.855469 C 442.160156 831.511719 446.25 845.976562 449.011719 855.667969 C 450.882812 862.242188 452.738281 868.824219 454.582031 875.410156 C 456.050781 880.675781 457.882812 887.136719 458.652344 889.769531 C 460.222656 895.152344 460.859375 897.414062 461.8125 901.0625 C 462.175781 902.449219 462.601562 903.433594 462.761719 903.257812 C 462.921875 903.078125 464.621094 897.367188 466.539062 890.566406 C 468.457031 883.765625 470.644531 876.046875 471.398438 873.417969 C 473.257812 866.933594 474.183594 863.660156 477.726562 851.078125 C 483.4375 830.816406 485.988281 821.960938 486.167969 821.769531 C 486.265625 821.664062 487.445312 822.828125 488.785156 824.363281 C 493.035156 829.226562 504.667969 840.585938 509.628906 844.71875 C 534.820312 865.707031 565.476562 881.710938 599.6875 891.734375 C 607.847656 894.125 619.488281 896.914062 619.835938 896.5625 C 620.3125 896.085938 612.09375 878.710938 607.714844 870.933594 C 592.839844 844.527344 574.976562 822.148438 555.152344 805.085938 C 554.308594 804.359375 553.683594 803.710938 553.761719 803.648438 C 553.839844 803.585938 555.160156 803.859375 556.695312 804.261719 C 606.726562 817.351562 662.082031 816.855469 719.253906 802.8125 C 727.488281 800.789062 729.519531 800.230469 739.777344 797.1875 C 748.59375 794.570312 752.5 793.25 767.296875 787.878906 C 771.226562 786.453125 781.359375 782.3125 786.84375 779.890625 C 794.203125 776.640625 806.984375 770.359375 806.984375 769.988281 C 806.984375 769.113281 790.726562 761.457031 775.964844 755.386719 C 761.652344 749.496094 737.167969 741.359375 725.019531 738.457031 C 724.140625 738.246094 721.628906 737.621094 719.433594 737.0625 C 714.484375 735.808594 703.875 733.488281 699.089844 732.613281 C 697.117188 732.253906 694.246094 731.710938 692.710938 731.410156 C 689.503906 730.777344 678.363281 729.179688 670.773438 728.261719 C 648.273438 725.539062 615.703125 725.535156 595.1875 728.246094 C 580.917969 730.132812 563.898438 733.34375 559.019531 735.066406 C 558.511719 735.246094 558.414062 735.195312 558.6875 734.898438 C 558.910156 734.667969 561.691406 733.371094 564.871094 732.023438 C 568.460938 730.5 572.050781 728.972656 575.640625 727.441406 C 622.839844 707.316406 666.144531 676.539062 705.308594 635.289062 C 738.578125 600.246094 769.785156 554.730469 790.765625 510.65625 C 795.066406 501.617188 796.816406 497.546875 796.515625 497.25 C 796 496.734375 776.480469 501.035156 763.707031 504.480469 C 755.902344 506.585938 747.699219 508.917969 746.359375 509.417969 C 745.808594 509.621094 741.859375 510.902344 737.582031 512.265625 C 730.796875 514.429688 718.417969 518.796875 711.65625 521.417969 C 710.265625 521.957031 708.867188 522.484375 707.46875 523.003906 C 706.371094 523.40625 703.679688 524.488281 701.484375 525.410156 C 699.292969 526.332031 696.632812 527.429688 695.578125 527.847656 C 687.519531 531.039062 662.808594 542.84375 652.625 548.367188 C 620.40625 565.835938 592.800781 585.203125 567.1875 608.308594 C 561.828125 613.144531 546.589844 628.476562 542.15625 633.496094 C 540.316406 635.578125 538.195312 637.972656 537.449219 638.816406 C 536.703125 639.65625 536.03125 640.285156 535.957031 640.210938 C 535.886719 640.136719 536.257812 637.832031 536.785156 635.089844 C 537.3125 632.347656 538.199219 627.234375 538.753906 623.722656 C 539.308594 620.214844 540.023438 615.726562 540.335938 613.75 C 542.75 598.582031 544.609375 576.269531 545.375 553.253906 C 546.320312 524.792969 544.273438 486.589844 540.332031 459.1875 L 539.101562 450.613281 C 536.585938 433.085938 532.261719 410.539062 528.003906 392.777344 C 516.679688 345.503906 500.585938 299.074219 480.726562 256.363281 C 474.835938 243.695312 463.222656 221.035156 462.640625 221.066406 C 462.597656 221.070312 461.945312 222.191406 461.191406 223.558594 " fill-opacity="1" fill-rule="evenodd"/></svg>