<svg xmlns="http://www.w3.org/2000/svg" xmlns:xlink="http://www.w3.org/1999/xlink" width="600" zoomAndPan="magnify" viewBox="0 0 450 449.999984" height="600" preserveAspectRatio="xMidYMid meet" version="1.0"><defs><clipPath id="0519548268"><path d="M 9.136719 3.75 L 445.636719 3.75 L 445.636719 435.75 L 9.136719 435.75 Z M 9.136719 3.75 " clip-rule="nonzero"/></clipPath></defs><g clip-path="url(#0519548268)"><path fill="#00AA6C" d="M 445.355469 350.847656 C 445.355469 350.847656 369.816406 308.15625 288.359375 328.644531 C 287.953125 328.757812 287.578125 328.855469 287.175781 328.96875 C 291.820312 326.996094 296.660156 324.941406 301.828125 322.75 C 399.066406 279.398438 438.722656 178.351562 438.722656 178.351562 C 438.722656 178.351562 337.949219 193.878906 273.519531 269.078125 C 301.335938 129.171875 227.246094 3.953125 227.246094 3.953125 C 227.246094 3.953125 153.15625 129.171875 180.96875 269.078125 C 116.542969 193.878906 15.765625 178.351562 15.765625 178.351562 C 15.765625 178.351562 55.421875 279.398438 152.660156 322.75 C 157.832031 324.941406 162.671875 326.996094 167.316406 328.96875 C 166.910156 328.855469 166.535156 328.757812 166.128906 328.644531 C 84.671875 308.15625 9.136719 350.847656 9.136719 350.847656 C 9.136719 350.847656 84.671875 393.53125 166.128906 373.042969 C 167.417969 372.695312 168.628906 372.363281 169.878906 372.027344 C 139.796875 397.519531 127.652344 431.007812 127.652344 431.007812 C 127.652344 431.007812 179.585938 422.546875 212.382812 383.394531 C 227.242188 435.792969 227.246094 435.808594 227.246094 435.808594 C 227.246094 435.808594 227.25 435.792969 242.109375 383.394531 C 274.902344 422.546875 326.839844 431.007812 326.839844 431.007812 C 326.839844 431.007812 314.691406 397.519531 284.609375 372.027344 C 285.859375 372.363281 287.070312 372.695312 288.359375 373.042969 C 369.816406 393.53125 445.355469 350.847656 445.355469 350.847656 " fill-opacity="1" fill-rule="nonzero"/></g></svg>